<svg viewBox="0 0 64 64"><path d="M13.6 58.1C14 61.3 17 64 20.3 64h23.5c3.3 0 6.3-2.7 6.7-5.9l4.9-42H8.7l4.9 42zm29.3-36.6c.1-1.1 1.1-1.9 2.2-1.8 1.1.1 1.9 1.1 1.8 2.2L44 55.6c-.1 1.1-1.1 1.9-2.2 1.8-1.1-.1-1.9-1.1-1.8-2.2l2.9-33.7zm-12.9.1c0-1.1.9-2 2-2a2 2 0 0 1 2 2v33.8a2 2 0 0 1-2 2 2 2 0 0 1-2-2V21.6zm-11-2c1.1-.1 2.1.7 2.2 1.8L24 55.2c.1 1.1-.7 2.1-1.8 2.2-1.1.1-2.1-.7-2.2-1.8l-2.9-33.8c-.1-1.1.8-2.1 1.9-2.2zM52.8 6.7H11.2c-2.9 0-4.9 1.7-4.9 4.4V13h51.4v-1.9c0-2.6-2.1-4.3-4.9-4.4zM38.5 3.9c0-.2.1-.4.1-.7v-.1c0-1.7-1.4-3.1-3.1-3.1h-7c-1.7 0-3.1 1.4-3.1 3.1v.2c0 .2 0 .5.1.7l13-.1z"/></svg>