<svg viewBox="0 0 64 64"><path d="M52.4 19.5c-4.3-4.6-10.7-7.4-19.9-6.6l-1 .1c-.7-2.8-2.1-5.9-3.8-6.5s-4 .2-5.1.6c-1.6.6-2.8 1.8-4.2 2-1.1.1-2.4.1-3.5 0-2.7 0-5.4.9-7.5 2.8C3 16.2 2.6 27 4.3 34.4c1.3 5.1 3.3 10 5.9 14.6.5.8 1.9 4 2.7 4.3.2.1.4.1.6.1.6-.1 1.4-.2 2.1-.3-1.3-3.4-2-7.1-2.2-10.7-.4-3.6 1.1-4.9 3.1-6 2.9-2.1 4.7-5.4 4.7-9.1v-1.6c0-.6.1-3.1.2-4.2-.7-.2-1.4-.8-1.4-1.6.9-.4 1.6.4 1.9.3.1-.7-1.5-.8-.9-1.9 1 0 .8 1.6 1.7 1.5 0-.6-.9-1.4-.3-1.9.7.2.3 1.8.7 2 .3-.1.1-.5.4-.6.3 0 .7 0 1-.2.1.7.2 1.3-.2 1.7.4.2.1.4.3.8.3.8 1.4 1.5 1.5 2s-.2 1.1-.7 1.3c-.2.1-.4 0-.6 0-.4-.4-.2-1-.8-1-.6 0-.7 1.1-.7 1.9.1 2.8.1 6 .1 9.4 0 2.5-.4 4.3-.6 6.5-.2 2.9-.9 5.8-1 8.3 0 .9 0 1.9.2 2.8l2.9-.2 1.1-.1c.5-.1.6-.3.6-.4-.3-.2-.6-.5-.7-.8-.6-1 .3-2.6.3-2.6.4-.8 1.3-1.6.8-2.4-.1-.4-.4-.7-.8-.9.2-.1.5-.1.7.1.2.3.5.5.9.7.4 0 .7.3.9.7 0 .4 0 .8-.2 1.3-.1.4.2 1.3.2 1.7v1.4c.1.3.3.6.6.7-.2.1-.5.2-.7.1 0 .2.2.4.4.4-.1.1-.3.2-.4.2h4.9c1.4.1 2.9.4 5.4.5V53c-.1-.7.6-.4.7-.8.2-.6-.3-.6-.1-1.3-2.2-.1-3.3 2.6-4.7.3.7-.5 2-.3 2.8-.6-1.5-.8-3.1-1.6-4.8-2.1-.8-3.1 3-1.8 4.1-.7.3-.1-.1-.3 0-.6 3-.9 3.5-4.5 8.6-3.3 3.1.7 3.1 3 5.1 5.3.1.7-.7.2-.7.8.7-.1 1.5-.2 2.2-.2-.7.8-2.5.5-3.5 1-.1.8 1.1.6 1.1 1.4.1 1-.4 1.1-.7 1.7-1.3-.2-1.3-1.5-2-2.1-.8 0-.7 1.3-.9 2.1l6.3.3H57c-2.5-4.9-2.1-14.7.1-20 1.6 1.1 4.2 2.8 6.7 1.6-6.3-4.1-7-11.5-11.4-16.3zm-39.8.6a2.96 2.96 0 0 0 0 4.1c.2.2.5.4.8.5-1.7.2-3.2-1-3.4-2.7-.2-1.7 1-3.2 2.7-3.4.9-.1 1.9.2 2.5.8-1-.2-2 .1-2.6.7zm3.6 12.5l-.7-.7-.8.7.4-1-.4-.4.5-.1.2-.5.2.5.8.1-.7.4.5 1zm27.4-14.1l.3-.6.3.6 1 .1-.8.4.3 1.1-.8-.8-.9.9.4-1.1-.5-.4.7-.2zm-9.4 1l.2-.7.4.6h.7l-.3.5.8 1.1-1.3-.6-.5.5v-.7l-1-.4 1-.3zm-6-2.2l.2-.4.2.4h.4l-.3.2.1.5-.4-.3-.5.3v-.5l-.2-.4.5.2zm25.1 11.5l-.4.2.1-.5-.7-.6.8.2.2-.9.2.9.5.1-.3.3.3 1-.7-.7z"/><path d="M40 49.8c0 .7.1 1.3.2 2l2 .1c0-.1-.1-.2-.1-.3.1-.8 1.5 0 1.1-1.3-.6-.6-2.2-.3-3.2-.5z"/></svg>