<?xml version="1.0" encoding="utf-8"?>
<!-- Generator: Adobe Illustrator 22.0.1, SVG Export Plug-In . SVG Version: 6.00 Build 0)  -->
<svg version="1.1" id="Layer_1" xmlns="http://www.w3.org/2000/svg" xmlns:xlink="http://www.w3.org/1999/xlink" x="0px" y="0px"
	 viewBox="0 0 64 64" style="enable-background:new 0 0 64 64;" xml:space="preserve">
<g>
	<g>
		<g>
			<path d="M25.4,43.5L23,27.7l0.9-0.1c5.2-0.4,8.9-1.2,11-2.5c2.1-1.2,3.1-2.8,3.1-4.7v-0.1c0-1.5-0.6-2.8-1.8-3.7
				c-1.2-0.9-2.8-1.3-5-1.3c-2.1,0-4.3,0.5-6.6,1.5c-2.3,1-4.4,2.5-6.6,4.4l-9-11.9c2.8-2.8,6-5,9.8-6.8C22.7,0.9,27.2,0,32.4,0
				c3.3,0,6.3,0.4,9.1,1.3s5.1,2.1,7.1,3.7s3.5,3.6,4.6,5.9c1.1,2.3,1.7,5,1.7,7.9v0.2c0,2.8-0.4,5.3-1.3,7.3
				c-0.9,2.1-2.2,3.9-3.7,5.3s-3.4,2.7-5.5,3.6c-2.1,1-4.5,1.8-7,2.4l-1.1,5.8H25.4z M38.1,56.3c0,4.2-3.4,7.7-7.7,7.7
				s-7.7-3.4-7.7-7.7s3.4-7.7,7.7-7.7S38.1,52.1,38.1,56.3z"/>
		</g>
	</g>
</g>
</svg>
