<?xml version="1.0" encoding="utf-8"?>
<!-- Generator: Adobe Illustrator 22.0.1, SVG Export Plug-In . SVG Version: 6.00 Build 0)  -->
<svg version="1.1" id="Layer_1" xmlns="http://www.w3.org/2000/svg" xmlns:xlink="http://www.w3.org/1999/xlink" x="0px" y="0px"
	 viewBox="0 0 64 64" style="enable-background:new 0 0 64 64;" xml:space="preserve">
<g>
	<path d="M16.8,23.6c0-2.1,0.3-4.1,0.8-6C7.5,20.3,0,29.4,0,40.4C0,53.4,10.6,64,23.6,64c11,0,20.1-7.5,22.8-17.6
		c-1.9,0.5-3.9,0.8-6,0.8C27.3,47.2,16.8,36.7,16.8,23.6z"/>
	<path d="M64,23.6C64,10.6,53.4,0,40.4,0c-11,0-20.1,7.5-22.8,17.6c1.9-0.5,3.9-0.8,6-0.8c13,0,23.6,10.6,23.6,23.6
		c0,2.1-0.3,4.1-0.8,6C56.5,43.7,64,34.6,64,23.6z"/>
</g>
</svg>
