<?xml version="1.0" encoding="utf-8"?>
<!-- Generator: Adobe Illustrator 22.0.1, SVG Export Plug-In . SVG Version: 6.00 Build 0)  -->
<svg version="1.1" id="Layer_1" xmlns="http://www.w3.org/2000/svg" xmlns:xlink="http://www.w3.org/1999/xlink" x="0px" y="0px"
	 viewBox="0 0 64 64" style="enable-background:new 0 0 64 64;" xml:space="preserve">
<g transform="translate(0,-952.36218)">
	<path d="M32,968.4c-17.7,0-32,14.3-32,32h6.1c0-14.3,11.6-25.9,25.9-25.9s25.9,11.6,25.9,25.9H64C64,982.7,49.7,968.4,32,968.4z
		 M32,977.5c-12.6,0-22.9,10.2-22.9,22.9h4.6c0-10.1,8.2-18.3,18.3-18.3s18.3,8.2,18.3,18.3h4.6C54.9,987.7,44.6,977.5,32,977.5z
		 M32,985.1c-8.4,0-15.2,6.8-15.2,15.2h6.1c0-5,4.1-9.1,9.1-9.1s9.1,4.1,9.1,9.1h6.1C47.2,991.9,40.4,985.1,32,985.1z"/>
</g>
</svg>
