<svg viewBox="0 0 64 64"><path d="M32 11.5c5.8 0 11 2.4 14.8 6.3.9.9.9 2.4 0 3.4l-1.6 1.6c-1.5 1.5-.4 4 1.7 4h14.2c1.3 0 2.4-1.1 2.4-2.4V10.1c0-2.1-2.6-3.2-4.1-1.7l-1.2 1.2c-1 1-2.5.9-3.4-.1C48.9 3.7 40.9 0 32 0 17.2 0 4.7 10.1 1.1 23.8c-.4 1.5.7 3 2.3 3h7c1 0 1.9-.7 2.3-1.7A20.5 20.5 0 0 1 32 11.5zm0 40.9c-5.6 0-10.7-2.3-14.4-6-.9-.9-1-2.5 0-3.4l1.9-1.9c1.5-1.5.4-4.1-1.7-4.1H2.9C1.6 37 .5 38.1.5 39.4v14.8c0 2.1 2.6 3.2 4.1 1.7l1.5-1.5c.9-1 2.5-.9 3.4.1 5.8 5.8 13.7 9.3 22.5 9.3 14.8 0 27.3-10.1 30.9-23.8.4-1.5-.7-3-2.3-3h-7c-1 0-1.9.7-2.3 1.7-2.8 8-10.4 13.7-19.3 13.7z"/></svg>