<?xml version="1.0" encoding="utf-8"?>
<!-- Generator: Adobe Illustrator 22.0.1, SVG Export Plug-In . SVG Version: 6.00 Build 0)  -->
<svg version="1.1" id="Layer_1" xmlns="http://www.w3.org/2000/svg" xmlns:xlink="http://www.w3.org/1999/xlink" x="0px" y="0px"
	 viewBox="0 0 64 64" style="enable-background:new 0 0 64 64;" xml:space="preserve">
<g>
	<g id="Design_4_">
		<g>
			<g>
				<path d="M32,11.5c5.8,0,11,2.4,14.8,6.3c0.9,0.9,0.9,2.4,0,3.4l-1.6,1.6c-1.5,1.5-0.4,4,1.7,4h14.2c1.3,0,2.4-1.1,2.4-2.4V10.1
					c0-2.1-2.6-3.2-4.1-1.7l-1.2,1.2c-1,1-2.5,0.9-3.4-0.1C49,3.7,40.9,0,32,0C17.2,0,4.6,10.1,1,23.9c-0.4,1.5,0.7,3,2.3,3h7
					c1,0,1.9-0.7,2.3-1.7C15.4,17.3,23.1,11.5,32,11.5z"/>
				<path d="M32,52.6c-5.6,0-10.7-2.3-14.4-6c-0.9-0.9-1-2.5,0-3.4l1.9-1.9c1.5-1.5,0.4-4.1-1.7-4.1H2.8c-1.3,0-2.4,1.1-2.4,2.4
					v14.8c0,2.1,2.6,3.2,4.1,1.7L6,54.6c0.9-1,2.5-0.9,3.4,0.1C15.2,60.5,23.2,64,32,64c14.8,0,27.4-10.1,31-23.9
					c0.4-1.5-0.7-3-2.3-3h-7c-1,0-1.9,0.7-2.3,1.7C48.6,46.8,40.9,52.6,32,52.6z"/>
			</g>
		</g>
	</g>
</g>
</svg>
