<?xml version="1.0" encoding="utf-8"?>
<!-- Generator: Adobe Illustrator 22.0.1, SVG Export Plug-In . SVG Version: 6.00 Build 0)  -->
<svg version="1.1" id="Layer_1" xmlns="http://www.w3.org/2000/svg" xmlns:xlink="http://www.w3.org/1999/xlink" x="0px" y="0px"
	 viewBox="0 0 64 64" style="enable-background:new 0 0 64 64;" xml:space="preserve">
<g>
	<g>
		<path d="M34.7,25.7C42,34.5,53.5,37.8,64,35.3c0-0.1,0-0.1,0-0.2l-0.2,0.2L28.7,0.3C26.7,9,28.6,18.4,34.7,25.7z"/>
		<path d="M57.1,41.9c-10,0-19.9-4.3-26.9-12.5C23.4,21.3,21,11,22.6,1.3C9.5,5.4,0,17.5,0,31.9C0,49.6,14.4,64,32.1,64
			c14.4,0,26.5-9.5,30.6-22.5C60.8,41.8,58.9,41.9,57.1,41.9z"/>
		<path d="M28.9,0C28.8,0,28.8,0,28.9,0C28.8,0,28.8,0,28.9,0L28.9,0z"/>
	</g>
</g>
</svg>
