<?xml version="1.0" standalone="no"?>
<!DOCTYPE svg PUBLIC "-//W3C//DTD SVG 1.1//EN" "http://www.w3.org/Graphics/SVG/1.1/DTD/svg11.dtd">
<svg xmlns="http://www.w3.org/2000/svg">
<metadata>Generated by Fontastic.me</metadata>
<defs>
<font id="nzk" horiz-adv-x="512">
<font-face font-family="nzk" units-per-em="512" ascent="480" descent="-32"/>
<missing-glyph horiz-adv-x="512" />

<glyph glyph-name="facebook" unicode="&#97;" d="M448 484l-385 0c-19 0-35-16-35-35l0-385c0-20 16-36 35-36l385 0c20 0 36 16 36 36l0 385c0 19-16 35-36 35z m-166-433l0 168-56 0 0 42 56 0 0 60c0 24 7 43 20 56 13 12 31 19 53 19 15 0 29-1 39-2l0-36-24 0c-43 0-44-33-44-44l0-53 64 0-6-42-58 0 0-168z"/>
<glyph glyph-name="twitter" unicode="&#98;" d="M498 405c-18-8-37-13-57-15 21 12 36 31 44 55-19-12-41-20-63-24-18 19-44 31-73 31-54 0-99-45-99-99 0-8 1-16 3-23-83 4-156 44-204 104-9-15-14-32-14-50 0-35 18-65 44-83-16 1-31 5-45 13 0-1 0-1 0-1 0-48 34-89 80-98-8-2-17-3-26-3-7 0-13 0-19 2 13-40 49-68 93-69-34-27-77-43-123-43-8 0-16 1-24 2 44-28 96-45 152-45 182 0 282 151 282 282 0 5 0 9 0 13 19 14 36 31 49 51z"/>
<glyph glyph-name="night-zookeeper-logo" unicode="&#100;" d="M323 87c0-7 1-12 2-18 5 0 11 0 17-1-1 1-1 2-1 3 1 6 13 0 10 11-6 5-20 3-28 5z m187 132c-54 26-59 87-96 127-36 39-90 62-167 56-1 0-8-1-8-1-5 23-17 49-31 54-16 5-34-2-43-5-13-6-23-15-35-17-10-2-21 0-30 0-22-1-45-7-62-23-37-36-41-125-26-187 11-47 29-85 50-122 4-7 15-33 22-36 1 0 3 0 5-1 6 1 12 2 18 3-14 34-18 82-19 90-3 31 10 41 27 51 12 9 37 32 39 76 0 1 0 1 0 2 0 6 0 10 0 11 0 5 1 26 2 35-6 2-11 6-12 13 8 4 13-3 16-2 1 6-12 7-8 15 8 0 7-13 14-12 0 6-8 11-2 15 5-1 2-14 6-16 2 0 1 5 3 5 3 0 6 1 8 2 1-6 2-11-1-14 3-2 1-4 2-7 2-7 11-12 12-17 2-5-3-13-11-10-3 4-2 9-8 9-6 0-6-10-6-15 1-24 1-51 1-78 0-21-3-36-5-55-2-24-8-48-9-69 0-9 1-17 2-23 8 0 16 1 24 1 4 1 7 1 10 1 5 1 6 2 6 3l0 0c-3 2-5 5-7 8-5 9 3 22 3 22 4 7 11 13 7 20-2 7-7 8-7 8 2 2 5 0 6 0 1-2 3-5 8-6 4-2 6-4 7-7 1-3-1-7-2-10-1-3 2-10 2-14 0-3 1-11 1-11 0-4 5-5 5-5 0-1-4-3-6-1 1-4 3-4 3-4-2-2-3-2-3-2 1 0 3 0 3 0 0 0 0 0 0 0 17 1 30 0 36-1 6-1 24-2 47-4 0 0 0 1 0 1-1 6 5 4 6 7 1 5-3 5-1 11-19 1-28-22-40-2 6 4 16 3 24 5-11 7-26 12-40 17-7 26 25 15 35 7 2 0-1 2 0 5 26 8 30 37 72 28 26-6 26-25 43-45 1-5-6-1-6-6 6 1 12 2 18 2-6-8-21-4-29-8-1-8 9-6 10-12 1-8-4-10-7-14-11 2-10 12-16 18-8-1-6-11-8-18 18-1 36-1 52-2 13 0 26 0 38 0-21 41-17 123 2 167 12-9 35-24 56-13z m-429 123c-10-10-10-25 0-34 2-2 4-3 6-5-8-1-16 2-22 8-10 10-10 27 0 37 10 10 27 10 37 0-7 2-16 0-21-6z m30-105l-6 6-7-6 3 9-3 3 5 1 2 4 2-4 7-1-6-3z m267 83l36-9-4-18-9 2-6-22-18 4 6 23-9 2z m-37 35l2 4 3-4 8-1-7-4 3-10-7 7-8-7 4 10-4 4z m0-37l0-15 9 0 0 15 19 0 0-41-18 0 0 15-10 0 0-15-18-1 0 42z m-56 2c4 2 8 3 13 3 3 0 6-1 10-2 3-1 7-3 10-4l-10-13c-3 2-7 3-10 3-2 0-4 0-5-1-1-1-2-3-2-4 0-4 2-5 7-6l0 7 18-1-1-22c-7 0-12 0-15 0-10 0-17 2-21 7-3 4-5 9-5 15 0 4 1 8 3 11 2 3 5 6 8 7z m-23 27l2 6 4-5 6 1-4-6 7-9-11 5-4-4-1 7-8 3z m8-28l0-42-18 0 0 42z m-58 47l1 3 2-3 3-1-3-2 2-5-4 3-4-3 0 4-2 3z m-12-49l13 1 11-13-1 14 18 2 4-42-13-1-11 12 2-13-19-2z m26-151c-1 8-4 12-9 12l1-12-15-1-2 33 15 1 0-11c3 0 5 1 6 3 1 2 1 5 1 8l15 1c0-4 0-7-1-10-1-2-2-5-4-7 5-3 7-8 8-16z m18 0l0 33 28 0 0-8-13 0 0-4 9 0 0-9-9 0 0-4 13 0 0-8z m-40 36l28 52-29-1-1 17 70 4-27-52 29 2 1-17z m72-34l0 33 27 0 0-8-13 0 0-4 9 0 0-9-9 0 0-4 13 0 0-8z m4 48c-6 7-10 15-10 25 0 10 4 18 10 25 7 6 15 10 25 10 10 0 18-3 25-10 6-7 10-15 10-25 0-10-4-18-10-25-7-7-15-10-25-10-10 0-18 3-25 10z m58-30c-2-3-5-4-8-4-2 0-5 0-7 2l1-14-15-1-3 33 20 2c5 0 8-1 10-3 3-2 4-4 5-7 0-3-1-6-3-8z m33 5l-12 2-1-4 9-1-1-8-9 1-1-4 13-2-1-8-28 4 5 33 28-4z m-19 21c-7 7-10 16-10 25 0 10 3 18 10 25 7 7 15 10 24 10 10 0 18-3 25-10 7-7 10-15 10-25 0-9-3-18-10-24-7-7-15-11-24-11-10 0-18 4-25 10z m46-47c-1 4-1 8-2 10-1 2-3 3-5 3l0-13-15 1 1 33 22-1c3 0 6-1 8-3 3-1 4-4 4-7-1-3-2-5-4-7 3-4 5-9 6-16z m24 104l-4-2 1 4-6 5 7-2 2 8 2-8 4 0-3-3 3-9z"/>
<glyph glyph-name="link" unicode="&#101;" d="M467 313l-96-95c-11-11-28-11-38 0l-20 19 96 96-76 76-96-96-19 20c-11 10-11 27 0 38l95 96c11 10 28 10 39 0l115-115c10-11 10-28 0-39z m-192-114l-96-96-76 76 96 96-20 19c-10 11-27 11-38 0l-96-95c-10-11-10-28 0-39l115-115c11-10 28-10 39 0l95 96c11 11 11 28 0 38z m-96-20c11-10 28-10 39 0l115 115c10 11 10 28 0 39-11 10-28 10-39 0l-115-115c-10-11-10-28 0-39z"/>
<glyph glyph-name="pinterest" unicode="&#99;" d="M475 256c0-40-9-77-29-110-20-34-46-60-80-80-33-20-70-29-110-29-21 0-42 3-62 9 11 17 18 33 22 47 2 6 7 26 15 60 4-8 11-14 21-19 10-6 21-9 33-9 23 0 43 7 62 20 18 13 32 31 42 54 9 23 14 48 14 77 0 22-5 42-17 61-11 19-27 35-49 47-21 12-46 18-73 18-20 0-38-3-56-9-17-5-32-12-44-22-12-9-22-19-31-31-9-12-15-24-19-37-4-13-6-26-6-38 0-20 4-38 11-53 8-15 19-25 34-31 5-3 9-1 10 5 1 2 2 5 3 9 1 5 2 8 2 9 1 4 0 8-3 12-10 12-15 26-15 43 0 29 10 54 30 74 20 21 46 31 78 31 29 0 51-8 68-23 16-16 24-36 24-61 0-32-7-60-20-83-13-22-30-34-50-34-12 0-21 5-28 13-7 8-9 18-7 30 2 6 4 15 8 26 4 12 6 21 9 30 2 8 3 16 3 21 0 10-3 18-8 24-5 6-12 10-22 10-12 0-22-6-30-17-8-11-12-24-12-40 0-14 2-26 7-35l-28-120c-4-13-5-30-4-50-39 17-71 44-95 80-24 36-36 77-36 121 0 40 9 77 29 110 20 34 46 60 80 80 33 20 70 29 110 29 40 0 77-9 110-29 34-20 60-46 80-80 20-33 29-70 29-110z"/>
<glyph glyph-name="love" unicode="&#103;" d="M359 473c-40 0-76-16-103-42-27 26-63 42-103 42-82 0-148-66-148-148 1-187 251-286 251-286 0 0 251 100 251 287 0 81-66 147-148 147z m14-304c-131-104 24 69-42 133-66 64 28 163 94 92 36-37 60-134-52-225z"/>
<glyph glyph-name="books" unicode="&#104;" d="M63 62c6 0 10 5 10 11l0 101c0 6-4 10-10 10-6 0-10-4-10-10l0-101c0-6 4-11 10-11z m0 143c6 0 10 4 10 10l0 20c0 6-4 10-10 10-6 0-10-4-10-10l0-20c0-6 4-10 10-10z m437-139l-122 346c-1 2-3 4-5 5-3 2-6 2-8 1l-68-26 0 26c0 6-5 10-10 10l-71 0 0 51c0 6-5 11-11 11l-101 0c-6 0-10-5-10-11l0-91-72 0c-5 0-10-5-10-10l0-346c0-6 5-10 10-10l265 0c5 0 10 4 10 10l0 286 102-290c1-2 3-4 6-5 1-1 2-1 4-1 1 0 2 0 3 0l82 31c5 2 8 8 6 13z m-406-24l-61 0 0 325 61 0z m61 376c0 6 4 10 10 10 5 0 10-4 10-10l0-244c0-5-5-10-10-10-6 0-10 5-10 10z m20-356l-41 0c-5 0-10 5-10 11 0 5 5 10 10 10l41 0c6 0 10-5 10-10 0-6-4-11-10-11z m0 41l-41 0c-5 0-10 5-10 10 0 6 5 10 10 10l41 0c6 0 10-4 10-10 0-5-4-10-10-10z m102-61l-61 0 0 366 61 0z m146 92c-2 0-3 0-4 0-4 0-8 2-9 6l-82 214c-2 5 1 11 6 13 5 2 11-1 13-6l82-214c2-5-1-11-6-13z m-187-72l20 0c6 0 11 5 11 11 0 5-5 10-11 10l-20 0c-6 0-10-5-10-10 0-6 4-11 10-11z m10 41c6 0 10 5 10 10l0 143c0 5-4 10-10 10-5 0-10-5-10-10l0-143c0-5 5-10 10-10z"/>
<glyph glyph-name="together" unicode="&#105;" d="M121 383l-28 19c-6 3-14 1-17-4l-65-103c-3-5-2-13 4-16l28-19c6-3 14-2 17 4l65 102c3 6 2 14-4 17z m264-220c0 0 0 0 0 1-5 7-12 16-17 24 0 0 0 0 0 0l-14 21c-3 4-7 6-12 6-2 0-5-1-7-2-3-2-5-6-6-9-1-4 0-8 2-11l5-7c0 0 0 0 0 0l27-38c0-1 0-2 1-3l2-3c2-3 5-5 9-6 4-1 7 0 11 2 6 5 7 13 3 19z m-136 151c6 4 15 5 21 1l64-33c3-2 7-2 10 0 2 2 3 4 4 7 0 2-1 4-2 6l-30 40c-6 7-14 12-23 13l-35 7c-20 4-40 3-60-1l-37-8c-4 0-9 0-13 1l-11 5c-3 1-7 0-10-3l-54-86c-2-4-1-8 1-11l33-31c2 2 3 3 4 4z m53-169c-2 3-4 4-7 4 0 0-1 0-2 0-2 0-5 0-7-2-4-4-5-10-2-15l13-19c3-4 9-6 14-4 3 2 5 4 6 8 1 2 1 5 0 7z m24 35c-2 3-5 5-9 5-1 0-1 0-2 0-3 0-6-1-9-3-5-4-6-13-2-18l8-12c0 0 0 0 0-1l13-18c1-1 1-1 1-2l4-6c4-6 12-7 18-4 4 2 6 5 7 9 1 3 0 6-1 9z m63 160c-4 7-13 10-20 6l-6-3c-2-1-4-2-6-2l-28-5 26-33c2-3 4-7 4-12 1-8-3-15-9-19-7-4-15-4-22 0l-63 33c-3 1-7 1-10-1l-137-89c-4-2-6-6-7-10-1-5-1-9 2-12 4-8 15-10 23-5l11 6 3 2 60 36c2 1 6 0 8-2 1-3 0-7-2-8l-63-38-4-2c-3-2-5-4-5-8-1-3-1-6 1-8 5-9 16-11 25-7l58 32c3 2 6 1 8-2 1-3 0-7-2-8l-42-23-11-6c-3-2-4-5-5-8-1-3 0-6 2-9 5-7 15-10 23-6l45 23c3 2 6 0 8-2 1-3 0-7-3-8l-32-17c-5-2-5-8 0-10 7-3 14-4 22-3l36 5c1 1 2 2 1 3l-3 4c-4 6-6 14-3 21 2 9 10 14 18 16 1 0 1 1 1 2-3 10 0 21 8 28 5 4 10 6 16 6 1 0 2 1 2 2 0 2 0 5 0 7 2 8 7 14 14 18 11 6 26 1 33-9l0-1c1-1 3-1 3 1 2 3 5 6 9 8 10 7 23 5 32-4 0-1 2-1 2 0l24 32c4 5 4 12 1 17z m11-130c-2 3-6 5-11 5-2 0-5 0-7-2-3-2-5-5-6-8-1-4 0-7 2-10l17-26c2-2 5-4 8-4 4-1 7 0 10 2l1 0c6 4 7 13 3 19z m102 81l-64 102c-4 6-11 8-17 4l-28-17c-6-4-7-12-4-17l65-103c3-5 11-7 17-3l27 17c6 4 8 11 4 17z"/>
<glyph glyph-name="cross" unicode="&#106;" d="M426 134c0-7-3-14-8-19l-39-39c-5-5-12-8-20-8-7 0-14 3-19 8l-84 84-84-84c-5-5-12-8-19-8-8 0-15 3-20 8l-39 39c-5 5-8 12-8 19 0 8 3 14 8 20l84 84-84 84c-5 5-8 12-8 19 0 8 3 14 8 20l39 38c5 6 12 8 20 8 7 0 14-2 19-8l84-84 84 84c5 6 12 8 19 8 8 0 15-2 20-8l39-38c5-6 8-12 8-20 0-7-3-14-8-19l-84-84 84-84c5-6 8-12 8-20z"/>
<glyph glyph-name="menu" unicode="&#107;" d="M85 388l344 0 0-32-344 0z m0-117l344 0 0-31-344 0z m0-116l344 0 0-32-344 0z"/>
<glyph glyph-name="night" unicode="&#109;" d="M451 56c-110 1-198 90-197 200 1 109 90 197 199 196 4 0 8 0 12-1-44 37-99 59-161 59-140 1-255-112-256-253-1-141 112-255 253-256 61-1 117 20 161 56-4 0-7-1-11-1z"/>
<glyph glyph-name="sound-off" unicode="&#108;" d="M35 4c-6 0-12 3-16 7-9 9-9 23 0 31l413 413c9 9 23 9 31 0 9-8 9-22 0-31l-413-413c-4-4-10-7-15-7z m7 145l40 0 255 255 0 80c0 2 0 4-1 7-3 14-11 21-25 21-6 0-12-3-19-9l-140-140-110 0c-2 0-5 0-8-1-13-3-20-11-20-25l0-162c3-15 12-23 28-26z m150-40l100-100c6-5 12-8 19-9 15 3 23 12 26 28l0 226z m244 244l-35-35c3-4 7-9 13-14 19-12 30-28 31-48-1-16-7-28-18-38-1-1-2-2-4-3-18-12-27-23-27-33 0-2 1-4 2-7 3-14 11-21 25-21 2 0 5 1 10 3 3 1 6 3 10 6 38 21 56 52 56 93 0 9-1 18-3 26-9 35-29 58-60 71z"/>
<glyph glyph-name="sound-on" unicode="&#110;" d="M310 513c14 0 22-7 25-21 1-3 1-5 1-7l0-457c-3-15-12-25-26-28-7 1-13 4-19 9l-140 140-111 0c-15 3-25 12-28 27l0 162c0 13 7 22 21 25 3 1 5 1 7 1l111 0 140 140c6 6 13 9 19 9z m85-183c3 16 12 25 27 28 4 0 7-1 10-3 32-12 54-36 63-72 2-9 3-17 3-26 0-42-18-73-56-93-4-3-7-5-10-6-5-2-8-3-10-3-14 0-22 7-25 21-1 3-2 5-2 7 0 10 9 21 27 32 2 1 3 2 4 3 11 10 17 23 18 39-1 19-11 35-31 48-11 9-17 17-18 25z"/>
<glyph glyph-name="settings" unicode="&#111;" d="M507 285c-1 9-10 17-20 17l-48 0c-10 0-20 6-22 13-3 8-6 31 0 38l35 35c7 6 7 18 1 25l-41 41c-7 6-18 5-25-2l-34-34c-7-7-18-10-25-6-7 3-26 18-26 27l0 49c0 9-8 18-17 19 0 0-14 2-29 2-16 0-29-2-29-2-9-1-17-10-17-19l0-49c0-9-6-19-13-22-8-2-31-6-38 1l-35 34c-6 7-18 8-25 2l-41-41c-6-7-5-19 2-25l34-35c7-7 9-18 6-25-3-7-18-26-27-26l-49 0c-9 0-18-8-19-17 0 0-2-13-2-29 0-15 2-29 2-29 1-9 10-17 19-17l49 0c9 0 19-6 22-13 2-7 6-31-1-38l-34-34c-7-7-8-18-2-26l41-40c7-6 19-6 25 1l35 34c7 7 18 10 25 6 7-3 26-17 26-27l0-49c0-9 8-18 17-19 0 0 13-2 29-2 15 0 29 2 29 2 9 1 17 10 17 19l0 49c0 10 6 20 13 22 7 3 31 6 38-1l34-34c7-7 18-7 25-1l41 40c6 8 6 19-1 26l-35 34c-6 7-9 18-6 25 4 7 18 26 28 26l48 0c10 0 19 8 20 17 0 0 2 14 2 29 0 16-2 29-2 29z m-251-121c-51 0-93 41-93 92 0 51 42 93 93 93 51 0 92-42 92-93 0-51-41-92-92-92z"/>
<glyph glyph-name="night-zookeeper-logo-alt" unicode="&#112;" d="M412 347c-35 38-90 61-166 55-1-1-8-1-8-1-5 23-17 49-31 54-16 5-34-2-43-6-14-5-23-14-35-17-10-1-21 1-30 0-22-1-45-6-62-23-37-35-41-125-25-187 11-46 28-84 49-121 4-7 15-33 23-36 1 0 3 0 5-1 5 1 11 2 18 3-14 34-19 82-20 90-3 31 10 41 27 51 13 9 38 32 39 76 0 0 0 1 0 2 0 6 0 10 0 11 0 5 1 26 2 35-6 2-11 6-12 13 8 4 13-4 16-2 1 6-12 6-8 15 8 0 7-13 14-12 0 5-8 11-2 15 5-1 2-15 6-17 2 1 1 5 3 6 3 0 6 1 8 2 1-6 2-11-1-14 3-2 1-4 2-7 2-7 11-12 12-17 2-5-3-14-11-10-3 4-2 9-8 9-6 0-6-10-6-16 1-23 2-50 1-77 0-21-3-36-5-55-2-24-8-48-8-69-1-9 0-17 2-23 8 0 16 1 24 2 3 0 6 0 10 0 4 1 5 3 5 4l0 0c-2 1-4 4-6 7-5 9 3 22 3 22 3 7 10 13 7 20-3 7-7 8-7 8 2 2 4 1 5 0 1-2 3-5 8-6 5-1 6-4 7-7 1-3 0-7-1-10-2-3 2-10 2-13 0-4 0-11 0-11 1-5 5-6 5-6 0 0-3-2-6-1 1-3 3-4 3-4-1-1-3-2-3-2 1 0 4 0 4 0 0 0 0 0 0 0 16 1 29 1 37 0 11-1 25-3 45-5 0 1 0 1 0 2-1 6 5 3 6 6 2 6-3 6-1 11-19 1-28-21-40-2 6 4 17 3 24 5-11 8-26 13-40 18-6 26 25 14 35 6 2 0-1 2 0 5 26 8 30 38 72 28 26-5 26-25 43-44 1-6-6-2-6-7 6 1 12 2 18 2-6-7-21-4-29-8-1-7 9-5 10-11 1-9-4-10-7-14-10 1-10 12-16 17-8 0-6-11-8-17 18-1 37-2 52-3 13 0 26 0 39 0-22 41-18 124 0 168 13-10 35-24 57-14-54 26-60 88-97 128z m-332-5c-10-10-10-25 0-34 2-2 4-4 6-5-7-1-15 2-21 8-11 10-11 26-1 37 11 10 27 10 37 0-7 2-15-1-21-6z m30-105l-6 6-7-6 4 9-4 3 5 1 2 4 2-4 8-1-6-3z m230 118l2 5 2-5 9-1-7-4 3-10-7 7-8-7 4 10-4 4z m-79-8l2 6 3-5 7 1-4-6 7-9-11 5-5-4 0 7-8 3z m-51 18l2 3 1-3 4 0-3-2 2-5-4 3-4-3 0 4-2 3z m210-96l-3-2 0 4-6 6 8-2 1 7 2-7 4-1-3-3 4-8z m-98-182c0-6 1-12 2-17 5 0 11-1 17-1-1 1-1 1-1 2 1 7 13 1 10 12-6 4-19 2-28 4z"/>
<glyph glyph-name="love-full" unicode="&#102;" d="M361 475c-41 0-78-16-105-43-27 27-64 43-105 43-82 0-148-67-148-149 0-189 254-290 254-290 0 0 253 102 253 291 0 82-67 148-149 148z"/>
<glyph glyph-name="legend" unicode="&#117;" d="M310 253l29-96-83 57-83-57 29 97-80 61 101 2 33 95 33-95 102-3z m14-124c39 48 106 62 165 52l12-1-7-10c-38-50-107-66-166-53l-12 2z m15 353c42-33 66-88 56-141l-2-12-10 7c-42 31-71 90-56 142l3 11z m171-171c-8-57-50-116-109-129l-11-3 2 12c11 57 51 110 108 129l11 3z m-62 127c22-50 15-112-18-155l-8-11-5 12c-21 51-16 112 18 156l8 10z m-371 2c34-44 39-105 19-156l-5-12-8 11c-34 43-41 105-19 155l5 12z m107-323c-59-13-128 3-166 53l-7 10 12 1c59 10 126-4 166-52l7-10z m1 361c15-52-13-111-56-142l-9-7-3 12c-10 53 15 108 56 141l9 7z m-173-158c57-19 98-72 108-129l2-12-11 3c-59 13-100 72-108 129l-2 12z m235-254c8 18-8 10-12 8-18-14-42-30-52-32l7-7c3-2 6-5 9-8l3-3 5 2c19 8 28 25 40 39 0 0 0 1 0 1z m174 10c-25 17-52 34-83 36-25 2-50 1-74-5l-1 0 0 0c-4-1-9-1-14 0l0 0 0 0c-25 6-50 7-74 5-32-2-59-18-84-36l-11-8 12-5c26-11 55-9 81-5 15 3 27 10 40 16l0 0c0 0 26 15 37 19 2 1 4 2 4 2l0 0 4 0 0 0c1 0 2 0 4-2 12-5 37-19 37-19l1 0c12-6 25-13 39-16 27-4 55-6 81 5l12 5z m-92-34c-10 2-34 18-52 32-4 2-20 9-12-8 0 0 1-1 1-1 11-14 21-31 40-39l4-2 4 3c3 3 6 6 8 8l8 7-1 0z"/>
<glyph glyph-name="captain" unicode="&#118;" d="M115 420l0-175c0-17 2-32 7-47 3-12 9-24 15-35 14-22 33-38 48-50l0 0c27-20 54-34 69-41 14 7 41 21 68 40l0 0 1 2c14 10 34 27 48 50 7 11 12 23 15 35 4 14 6 30 6 46l0 175c-44 15-91 23-138 23-48 0-94-8-139-23z m165-92l80-2-64-48 23-77-65 46-66-46 23 77-64 49 80 1 27 76z m166 148c-61 24-126 36-192 36-66 0-131-12-193-36l-4-1 0-232c0-23 3-45 8-65 6-18 13-35 23-51 19-31 45-52 64-67l0 0c40-29 80-50 96-57 0 0 0 0 0 0l1 0 0 0c0 0 0-1 1-1 0 0 1 0 1 0l3-1 3 1c0 0 0 0 0 0 1 0 1 0 2 1l0 0 0 0c0 0 1 0 1 0 16 8 56 28 96 57l0 0 0 0c19 15 46 38 65 70 10 15 17 32 22 50 5 19 8 40 8 63l0 232z m-29-43l0-188c0-18-3-36-7-52-4-15-10-29-18-41-16-27-38-46-54-58l0 0 0 0c-32-24-66-41-79-47 0 0-1 0-1 0l0 0 0 0c-1-1-1-1-1-1-1 0-1 0-1 0l-2-1-3 1c0 0 0 0 0 0-1 0-1 0-1 1l0 0-1 0c0 0 0 0 0 0-13 6-46 23-79 47l0 0 0 0c-16 12-37 30-53 56-9 13-15 27-19 41-5 17-7 35-7 54l0 192 3 1c51 20 105 30 160 30 54 0 108-10 159-30l4-1 0-4z"/>
<glyph glyph-name="night-news" unicode="&#119;" d="M233 341l-3-188-72 1-57 95c0-23 1-40 1-49 1-18 2-35 3-49l-65 3c-3 29-4 59-4 90 0 31 0 64 1 100l76 2 57-103 3 100z m86 3l60 2 56-103 4 100 43-2c-21 59-64 111-125 141-72 36-154 34-221 2 25-4 50-11 74-23 51-25 89-67 109-117z m104-190l-57 95c1-23 1-40 2-49 0-18 1-35 3-49l-59 3c0 0 0 0 0 0-35-72-104-116-177-125 124-60 273-9 335 114 2 4 3 7 5 10z"/>
<glyph glyph-name="recruit" unicode="&#121;" d="M64 512l0-510 391 0 0 510z m94-113l13 37 13-37 39-1-31-23 11-38-32 23-33-23 12 38-31 24z m245-300l-288 0 0 19 288 0z m0 79l-288 0 0 19 288 0z m0 78l-288 0 0 19 288 0z m0 79l-156 0 0 19 156 0z m0 79l-156 0 0 19 156 0z"/>
<glyph glyph-name="pencil" unicode="&#122;" d="M49 49c-13 13-29 19-46 18 0 0 0 0 0 0l-2-62c0-2 1-3 3-3l62 1c0 1 0 1 0 1 1 17-5 33-17 45z m73 1l371 371c-8 14-18 29-31 42-12 12-26 21-39 29l-372-372c16-14 57-54 71-70z m284 450c-8 4-16 7-23 10l-371-372c3-1 11-3 23-8z m-275-467c4-9 8-21 9-24l371 371c-2 6-5 15-9 24z"/>
<glyph glyph-name="hero" unicode="&#65;" d="M346 512l89 0 0-270-89 0z m-262 0l89 0 0-270-89 0z m175-235l40-82 123 0-98-77 36-117-101 70-101-70 36 117-98 77 123 0z m0 93l45-92 0 234-90 0 0-234z"/>
<glyph glyph-name="clock" unicode="&#66;" d="M126 180c-8-5-11-16-6-24 5-8 16-11 24-7 9 5 11 16 7 25-5 8-16 11-25 6z m18 140c-8 5-19 2-24-7-5-8-2-19 6-24 9-5 20-2 25 7 4 8 2 19-7 24z m-10-85c0 9-8 17-18 17-9 0-17-8-17-17 0-10 8-18 17-18 10 0 18 8 18 18z m136 232l0 16 18 0c5 0 9 4 9 9l0 9c0 5-4 9-9 9l-64 0c-5 0-9-4-9-9l0-9c0-5 4-9 9-9l18 0 0-16c-122-8-219-109-219-232 0-129 105-233 233-233 129 0 233 104 233 233 0 123-97 224-219 232z m-14-412c-99 0-179 81-179 180 0 99 80 179 179 179 99 0 179-80 180-179-1-99-81-180-180-180z m-61 74c-8 5-19 2-24-6-5-9-2-20 6-25 9-4 20-1 25 7 5 8 2 19-7 24z m0 211c9 5 11 16 7 24-5 9-16 12-25 7-8-5-11-16-6-24 5-9 16-12 24-7z m191-51c8 5 11 16 6 24-5 9-16 12-24 7-8-5-11-16-6-24 5-9 15-12 24-7z m-130-176c-10 0-18-8-18-18 0-10 8-18 18-18 10 0 18 8 18 18 0 10-8 18-18 18z m79 258c-9 5-20 2-24-7-5-8-2-19 6-24 8-5 19-2 24 7 5 8 2 19-6 24z m61-119c-10 0-18-8-18-17 0-10 8-18 18-18 9 0 17 8 17 18 0 9-8 17-17 17z m-10-72c-9 5-20 2-24-6-5-9-2-20 6-25 9-4 19-1 24 7 5 8 2 19-6 24z m-69-51c-8-5-11-16-6-24 4-9 15-12 24-7 8 5 11 16 6 25-5 8-16 11-24 6z m-61 259c-7 0-14-6-14-14l-8-132-55-36c-3-2-6-5-7-8 0-4 0-8 2-11 2-4 7-7 12-7 2 0 4 1 7 2l59 31 3-1c0 0 1 0 1 0 13 0 23 10 23 23l-9 139c0 8-6 14-14 14z"/>
<glyph glyph-name="refresh" unicode="&#120;" d="M431 223c0-96-78-175-175-175-97 0-175 79-175 175 0 97 77 175 173 176l0-69 90 90-90 90 0-66c-121-1-218-99-218-221 0-121 98-220 220-220 122 0 221 99 221 220z m-164 78l-93 46 20-82-66-80 102 7 32-105 50 114 103 20-89 47 21 67z"/>
<glyph glyph-name="search" unicode="&#67;" d="M466 105l-119 95c21 29 35 65 35 105 0 97-80 177-176 177-97 0-177-80-177-177 0-97 80-176 177-176 40 0 76 14 105 35l95-119c23-24 52-18 66 0 15 18 18 37-6 60z m-260 78c-67 0-122 55-122 122 0 67 55 122 122 122 67 0 122-55 122-122 0-67-55-122-122-122z"/>
<glyph glyph-name="up" unicode="&#68;" d="M481 132l-48-47c-3-4-7-6-12-6-5 0-10 2-13 6l-152 151-152-151c-3-4-8-6-13-6-5 0-9 2-12 6l-48 47c-3 3-5 8-5 13 0 5 2 9 5 13l212 211c4 4 8 6 13 6 5 0 9-2 13-6l212-211c3-4 5-8 5-13 0-5-2-10-5-13z"/>
<glyph glyph-name="right" unicode="&#69;" d="M389 261l-212-212c-3-3-7-5-12-5-5 0-10 2-13 5l-48 48c-3 3-5 8-5 13 0 5 2 9 5 13l152 151-152 152c-3 4-5 8-5 13 0 5 2 9 5 13l48 47c3 4 8 6 13 6 5 0 9-2 12-6l212-212c4-3 6-8 6-13 0-5-2-9-6-13z"/>
<glyph glyph-name="left" unicode="&#70;" d="M408 426l-152-152 152-151c3-4 5-8 5-13 0-5-2-10-5-13l-48-48c-3-3-8-5-13-5-5 0-9 2-12 5l-212 212c-4 4-6 8-6 13 0 5 2 10 6 13l212 212c3 4 7 6 12 6 5 0 10-2 13-6l48-47c3-4 5-8 5-13 0-5-2-9-5-13z"/>
<glyph glyph-name="down" unicode="&#71;" d="M481 281l-212-212c-4-3-8-5-13-5-5 0-9 2-13 5l-212 212c-3 4-5 8-5 13 0 5 2 10 5 13l48 47c3 4 7 6 12 6 5 0 10-2 13-6l152-151 152 151c3 4 8 6 13 6 5 0 9-2 12-6l48-47c3-3 5-8 5-13 0-5-2-9-5-13z"/>
<glyph glyph-name="plus" unicode="&#113;" d="M457 302l0-55c0-8-3-14-8-20-5-5-12-8-19-8l-119 0 0-118c0-8-3-15-8-20-5-5-12-8-20-8l-54 0c-8 0-15 3-20 8-5 5-8 12-8 20l0 118-119 0c-7 0-14 3-19 8-5 6-8 12-8 20l0 55c0 7 3 14 8 19 5 5 12 8 19 8l119 0 0 119c0 8 3 14 8 19 5 6 12 8 20 8l54 0c8 0 15-2 20-8 5-5 8-11 8-19l0-119 119 0c7 0 14-3 19-8 5-5 8-12 8-19z"/>
<glyph glyph-name="pro" unicode="&#116;" d="M414 338l17 14-19 10 15 17-21 7 12 19-21 4 9 20-22 1 6 21-22-2 3 21-21-5-2 21-19-8-5 21-18-12-8 20-16-14-11 19-14-17-13 17-11-19-16 14-8-20-18 12-5-21-20 8-1-21-21 5 3-21-22 2 6-21-22-1 9-20-21-4 11-19-20-7 15-17-19-10 17-14-17-14 19-11-15-16 20-8-11-18 21-4-9-20 22-1-6-21 22 2-3-22 21 6 1-22 20 9 5-21 18 12 8-20 16 14 11-19 13 17 14-17 11 19 16-14 8 20 18-12 5 21 19-9 2 22 21-6-3 22 22-2-6 21 22 1-9 20 21 4-11 18 20 8-15 16 19 11z m-131-4l14-45-40 27-39-27 14 45-38 29 48 1 15 45 16-45 48-1z m-20-183l0-89 62-61 0 150z m-11 0l-62 0 0-150 62 61z"/>
<glyph glyph-name="align-center" unicode="&#76;" d="M512 128l0-37c0-5-2-9-5-12-4-4-8-6-13-6l-476 0c-5 0-9 2-13 6-3 3-5 7-5 12l0 37c0 5 2 9 5 13 4 3 8 5 13 5l476 0c5 0 9-2 13-5 3-4 5-8 5-13z m-110 110l0-37c0-5-2-9-5-13-4-3-8-5-13-5l-256 0c-5 0-9 2-13 5-3 4-5 8-5 13l0 37c0 5 2 9 5 13 4 3 8 5 13 5l256 0c5 0 9-2 13-5 3-4 5-8 5-13z m73 109l0-36c0-5-1-9-5-13-4-4-8-5-13-5l-402 0c-5 0-9 1-13 5-4 4-5 8-5 13l0 36c0 5 1 10 5 13 4 4 8 6 13 6l402 0c5 0 9-2 13-6 4-3 5-8 5-13z m-109 110l0-36c0-5-2-10-6-13-3-4-8-6-13-6l-182 0c-5 0-10 2-13 6-4 3-6 8-6 13l0 36c0 5 2 9 6 13 3 4 8 5 13 5l182 0c5 0 10-1 13-5 4-4 6-8 6-13z"/>
<glyph glyph-name="align-left" unicode="&#78;" d="M512 128l0-37c0-5-2-9-5-12-4-4-8-6-13-6l-476 0c-5 0-9 2-13 6-3 3-5 7-5 12l0 37c0 5 2 9 5 13 4 3 8 5 13 5l476 0c5 0 9-2 13-5 3-4 5-8 5-13z m-110 110l0-37c0-5-2-9-5-13-4-3-8-5-13-5l-366 0c-5 0-9 2-13 5-3 4-5 8-5 13l0 37c0 5 2 9 5 13 4 3 8 5 13 5l366 0c5 0 9-2 13-5 3-4 5-8 5-13z m73 109l0-36c0-5-1-9-5-13-4-4-8-5-13-5l-439 0c-5 0-9 1-13 5-3 4-5 8-5 13l0 36c0 5 2 10 5 13 4 4 8 6 13 6l439 0c5 0 9-2 13-6 4-3 5-8 5-13z m-109 110l0-36c0-5-2-10-6-13-3-4-8-6-13-6l-329 0c-5 0-9 2-13 6-3 3-5 8-5 13l0 36c0 5 2 9 5 13 4 4 8 5 13 5l329 0c5 0 10-1 13-5 4-4 6-8 6-13z"/>
<glyph glyph-name="align-right" unicode="&#79;" d="M512 128l0-37c0-5-2-9-5-12-4-4-8-6-13-6l-476 0c-5 0-9 2-13 6-3 3-5 7-5 12l0 37c0 5 2 9 5 13 4 3 8 5 13 5l476 0c5 0 9-2 13-5 3-4 5-8 5-13z m0 110l0-37c0-5-2-9-5-13-4-3-8-5-13-5l-366 0c-5 0-9 2-13 5-3 4-5 8-5 13l0 37c0 5 2 9 5 13 4 3 8 5 13 5l366 0c5 0 9-2 13-5 3-4 5-8 5-13z m0 109l0-36c0-5-2-9-5-13-4-4-8-5-13-5l-439 0c-5 0-9 1-13 5-4 4-5 8-5 13l0 36c0 5 1 10 5 13 4 4 8 6 13 6l439 0c5 0 9-2 13-6 3-3 5-8 5-13z m0 110l0-36c0-5-2-10-5-13-4-4-8-6-13-6l-329 0c-5 0-10 2-13 6-4 3-6 8-6 13l0 36c0 5 2 9 6 13 3 4 8 5 13 5l329 0c5 0 9-1 13-5 3-4 5-8 5-13z"/>
<glyph glyph-name="bold" unicode="&#80;" d="M213 77c15-6 28-9 40-9 72 0 108 32 108 96 0 22-4 39-12 51-5 9-11 16-17 22-7 5-13 10-20 13-6 3-14 5-23 7-9 2-17 3-24 3-7 0-16 1-27 1-14 0-23-1-29-3 0-10 0-26 0-46 0-20 0-35 0-45 0-1 0-8 0-19 0-11 0-21 0-28 0-7 0-15 1-24 1-8 2-15 3-19z m-4 214c8-2 19-2 32-2 15 0 29 1 40 3 12 3 23 7 32 13 9 6 16 15 21 26 5 11 7 24 7 40 0 13-2 25-8 35-5 10-13 18-22 24-10 5-20 9-31 12-11 3-23 4-36 4-9 0-22-1-37-4 0-9 1-24 1-43 1-19 1-34 1-43 0-5 0-13 0-23 0-10 0-18 0-23 0-8 0-15 0-19z m-154-254l0 26c3 1 11 3 25 5 13 2 23 5 30 8 1 2 3 5 4 7 1 3 1 6 2 10 1 4 1 7 2 9 0 3 0 7 0 11 1 4 1 8 2 10l0 18c0 187-2 285-6 293-1 2-3 3-7 4-3 2-7 3-12 4-5 0-10 1-15 2-4 0-9 0-13 1-5 0-8 1-9 1l-1 23c18 1 51 2 97 4 46 2 81 2 106 2 5 0 11 0 20-1 9-1 15-1 19-1 14 0 27-2 39-4 13-3 25-7 37-12 12-6 22-12 31-20 9-8 16-18 21-30 5-12 8-25 8-40 0-9-2-19-5-27-3-8-7-15-11-20-4-6-10-11-18-17-8-5-15-10-21-13-6-3-14-7-24-11 29-7 54-20 73-38 20-19 29-43 29-71 0-19-3-36-10-52-6-15-15-27-26-37-11-10-25-18-40-24-15-7-30-11-46-14-16-3-33-4-51-4-8 0-21 0-37 1-17 0-30 1-38 1-20 0-50-1-88-4-38-2-60-3-66-3z"/>
<glyph glyph-name="italic" unicode="&#73;" d="M110 37l5 24c1 1 8 3 23 7 14 3 25 7 32 10 5 7 9 17 11 29 1 1 7 29 18 83 12 53 23 105 33 155 10 50 15 78 15 85l0 7c-5 2-10 4-16 5-6 1-12 2-20 2-7 1-13 1-16 2l5 29c6 0 18-1 34-1 17-1 31-2 43-2 12-1 23-1 34-1 10 0 19 0 29 1 9 0 21 1 34 2 14 0 23 1 28 1-1-7-2-15-5-25-6-2-16-5-29-8-14-4-24-7-31-10-2-3-3-7-4-12-1-4-2-8-3-11 0-3-1-8-2-13-1-6-1-10-2-12-5-28-13-68-25-120-11-52-19-86-22-102 0-1-1-7-4-16-2-10-4-18-5-26-2-8-4-16-5-24-1-8-2-13-2-16l1-5c3-1 21-4 53-9-1-9-3-18-5-29-2 0-5 0-9 0-4 0-7 0-10 0-5 0-13 1-24 2-11 2-20 3-25 3-26 1-46 1-59 1-10 0-23-1-41-3-17-1-29-2-34-3z"/>
<glyph glyph-name="underline" unicode="&#75;" d="M50 448c-7 1-11 1-13 1l0 26c2 0 6 0 11 0 11 0 22-1 32-1 25-2 41-2 47-2 17 0 33 0 48 1 23 0 36 1 42 1 11 0 19 0 25 1l-1-4 1-19 0-2c-11-2-23-3-35-3-12 0-19-2-23-7-2-3-4-15-4-38 0-2 0-5 0-9 1-4 1-6 1-7l0-66 4-80c1-23 6-43 14-57 7-12 16-20 28-27 17-9 33-13 50-13 20 0 38 3 55 8 11 3 20 8 28 14 9 7 16 13 19 19 7 10 12 21 15 32 4 14 6 36 6 66 0 15 0 27-1 36-1 10-2 21-3 35-2 14-3 29-4 46l-1 17c-1 12-3 21-7 25-6 7-14 10-22 10l-29-1-4 1 1 24 24 0 59-2c14-1 33 0 56 2l5 0c1-7 1-12 1-15 0-1 0-4-1-9-8-2-16-3-24-3-14-2-21-4-22-5-3-3-5-7-5-12 0-1 1-4 1-8 0-3 0-6 0-8 2-4 4-42 7-114 1-37-1-66-5-86-3-15-6-27-11-35-8-13-18-24-32-35-15-11-32-20-52-26-21-6-45-9-73-9-32 0-59 4-81 13-23 9-40 20-52 35-11 14-19 33-23 55-3 16-5 38-5 68l0 95c0 36-1 56-5 61-4 7-18 11-42 11z m425-402l0 18c0 3 0 5-2 7-2 1-4 2-7 2l-420 0c-3 0-5-1-7-2-2-2-2-4-2-7l0-18c0-3 0-5 2-7 2-2 4-2 7-2l420 0c3 0 5 0 7 2 2 2 2 4 2 7z"/>
<glyph glyph-name="picture" unicode="&#74;" d="M165 347c0-15-6-28-16-38-11-11-24-16-39-16-16 0-28 5-39 16-11 10-16 23-16 38 0 16 5 29 16 39 11 11 23 16 39 16 15 0 28-5 39-16 10-10 16-23 16-39z m292-109l0-128-402 0 0 55 91 91 46-46 146 147z m28 201l-458 0c-2 0-4-1-6-3-2-2-3-4-3-6l0-348c0-2 1-4 3-6 2-2 4-3 6-3l458 0c2 0 4 1 6 3 2 2 3 4 3 6l0 348c0 2-1 4-3 6-2 2-4 3-6 3z m45-9l0-348c0-12-4-23-13-32-9-9-20-13-32-13l-458 0c-12 0-23 4-32 13-9 9-13 20-13 32l0 348c0 12 4 23 13 32 9 9 20 13 32 13l458 0c12 0 23-4 32-13 9-9 13-20 13-32z"/>
<glyph glyph-name="time-travel" unicode="&#114;" d="M257 509c-140 0-253-113-253-253 0-139 113-252 253-252 139 0 252 113 252 252 0 140-113 253-252 253z m34-167l-11-14c-8-9-16-19-23-29-8 10-16 20-24 29l-11 14c-28 35-28 80-26 104 39 12 82 12 121 0 3-24 3-69-26-104z m-147 78c1-32 9-74 38-111l11-13c10-13 21-25 31-38-23-28-40-49-42-51-30-38-38-82-38-114-54 37-86 97-86 163 0 66 32 127 86 164z m78-245l1 0c2 3 15 20 34 42 20-24 34-42 34-43 30-37 29-85 26-107-39-13-82-13-120 0-3 22-5 71 25 108z m148-82c-1 32-8 76-39 114l0 0c-3 4-20 25-41 51 10 13 20 25 30 38l11 13c30 37 38 79 39 111 53-37 86-98 86-164 0-66-33-126-86-163z"/>
<glyph glyph-name="check" unicode="&#115;" d="M477 350c0-7-2-14-8-19l-206-207-39-39c-6-5-12-8-20-8-7 0-14 3-19 8l-142 142c-6 6-8 12-8 20 0 7 2 14 8 19l38 39c6 5 12 8 20 8 7 0 14-3 19-8l84-84 188 188c5 5 12 8 19 8 8 0 14-3 20-8l38-39c6-6 8-12 8-20z"/>
<glyph glyph-name="info-circle" unicode="&#72;" d="M329 119l0 46c0 2-1 4-2 6-2 2-4 3-7 3l-27 0 0 146c0 3-1 5-3 7-2 1-4 2-7 2l-91 0c-3 0-5-1-7-2-1-2-2-4-2-7l0-46c0-2 1-5 2-6 2-2 4-3 7-3l27 0 0-91-27 0c-3 0-5-1-7-3-1-2-2-4-2-6l0-46c0-3 1-5 2-7 2-1 4-2 7-2l128 0c3 0 5 1 7 2 1 2 2 4 2 7z m-36 256l0 46c0 2-1 4-3 6-2 2-4 3-7 3l-54 0c-3 0-5-1-7-3-2-2-3-4-3-6l0-46c0-3 1-5 3-7 2-1 4-2 7-2l54 0c3 0 5 1 7 2 2 2 3 4 3 7z m182-119c0-40-9-77-29-110-20-34-46-60-80-80-33-20-70-29-110-29-40 0-77 9-110 29-34 20-60 46-80 80-20 33-29 70-29 110 0 40 9 77 29 110 20 34 46 60 80 80 33 20 70 29 110 29 40 0 77-9 110-29 34-20 60-46 80-80 20-33 29-70 29-110z"/>
</font>
</defs>
</svg>
