<svg viewBox="0 0 64 64"><path d="M56.9 24.4h-6.2v-5.7C50.8 8.4 42.3 0 32 0S13.2 8.4 13.2 18.8v5.7H7.1c-.8 0-1.4.6-1.4 1.4v36.7c0 .8.6 1.4 1.4 1.4H57c.8 0 1.4-.6 1.4-1.4V25.9c0-.8-.7-1.5-1.5-1.5zM37.7 53.2c-.9-.7-1.8-1.3-2.8-1.9-1-.6-1.9-1.3-2.9-1.8l-3 1.8c-1 .6-1.9 1.3-2.8 1.9.2-2.5.4-5 .7-7.5-.9-.8-1.8-1.6-2.7-2.5-.9-.8-1.9-1.6-2.9-2.3 2.4-.7 4.9-1.1 7.3-1.6 1-2.3 2.2-4.5 3.4-6.8 1.2 2.2 2.3 4.5 3.3 6.8 2.5.4 4.9 1 7.3 1.6-2 1.6-3.9 3.1-5.7 4.8.4 2.5.6 5 .8 7.5zm5.1-28.8H21.2v-5.7c0-6 4.9-10.8 10.8-10.8 6 0 10.8 4.9 10.8 10.8v5.7z"/></svg>